<svg xmlns="http://www.w3.org/2000/svg" viewBox="0 0 155.26 126.17"><defs><style>.cls-1{fill:#fff;}</style></defs><g id="Livello_2" data-name="Livello 2"><g id="Livello_1-2" data-name="Livello 1"><path class="cls-1" d="M155.26,14.94A64.4,64.4,0,0,1,137,20,32,32,0,0,0,151,2.33a63.94,63.94,0,0,1-20.22,7.73A31.88,31.88,0,0,0,76.47,39.11,90.39,90.39,0,0,1,10.81,5.83a31.9,31.9,0,0,0,9.86,42.53,31.77,31.77,0,0,1-14.43-4c0,.13,0,.27,0,.41A31.89,31.89,0,0,0,31.79,76a32.23,32.23,0,0,1-8.39,1.12,31.85,31.85,0,0,1-6-.58A31.86,31.86,0,0,0,47.16,98.67,63.88,63.88,0,0,1,7.6,112.31a65.6,65.6,0,0,1-7.6-.44,90.23,90.23,0,0,0,48.83,14.3c58.59,0,90.63-48.53,90.63-90.63,0-1.38,0-2.75-.09-4.12A64.51,64.51,0,0,0,155.26,14.94Z"/></g></g></svg>