<svg xmlns="http://www.w3.org/2000/svg" viewBox="0 0 44 32"><defs><style>.cls-1{fill:#7b7e85;}</style></defs><g id="Livello_2" data-name="Livello 2"><g id="Livello_1-2" data-name="Livello 1"><path class="cls-1" d="M43,5.44A5.41,5.41,0,0,0,38.4,1.17,119.3,119.3,0,0,0,22,0,117.94,117.94,0,0,0,5.49,1.17,5.41,5.41,0,0,0,.88,5.44,60.56,60.56,0,0,0,0,16,60.56,60.56,0,0,0,.88,26.56a5.41,5.41,0,0,0,4.61,4.27A120.76,120.76,0,0,0,22,32,117.9,117.9,0,0,0,38.4,30.83,5.41,5.41,0,0,0,43,26.56,71.05,71.05,0,0,0,44,16,58.7,58.7,0,0,0,43,5.44ZM29.8,16.78,18.45,24.34A.93.93,0,0,1,17,23.57V8.43a.93.93,0,0,1,1.45-.77L29.8,15.23A.93.93,0,0,1,29.8,16.78Z"/></g></g></svg>